<mxfile host="app.diagrams.net" modified="2024-09-29T11:28:56.707Z" agent="Mozilla/5.0 (Windows NT 10.0; Win64; x64) AppleWebKit/537.36 (KHTML, like Gecko) Chrome/129.0.0.0 Safari/537.36" etag="SG7IrbFPTYOHMwbDrbMn" version="24.6.3" type="google">
  <diagram id="R2lEEEUBdFMjLlhIrx00" name="Page-1">
    <mxGraphModel dx="1730" dy="2634" grid="1" gridSize="10" guides="1" tooltips="1" connect="1" arrows="1" fold="1" page="1" pageScale="1" pageWidth="850" pageHeight="1100" math="0" shadow="0" extFonts="Permanent Marker^https://fonts.googleapis.com/css?family=Permanent+Marker">
      <root>
        <mxCell id="0" />
        <mxCell id="1" parent="0" />
        <mxCell id="ea_plrxSvSkNGwoNDSgh-14" value="warehouse" style="shape=table;startSize=20;container=1;collapsible=1;childLayout=tableLayout;fixedRows=1;rowLines=0;fontStyle=1;align=center;resizeLast=1;html=1;" parent="1" vertex="1">
          <mxGeometry x="-290" y="-950" width="180" height="150" as="geometry" />
        </mxCell>
        <mxCell id="ea_plrxSvSkNGwoNDSgh-15" value="" style="shape=tableRow;horizontal=0;startSize=0;swimlaneHead=0;swimlaneBody=0;fillColor=none;collapsible=0;dropTarget=0;points=[[0,0.5],[1,0.5]];portConstraint=eastwest;top=0;left=0;right=0;bottom=1;" parent="ea_plrxSvSkNGwoNDSgh-14" vertex="1">
          <mxGeometry y="20" width="180" height="80" as="geometry" />
        </mxCell>
        <mxCell id="ea_plrxSvSkNGwoNDSgh-16" value="" style="shape=partialRectangle;connectable=0;fillColor=none;top=0;left=0;bottom=0;right=0;fontStyle=1;overflow=hidden;whiteSpace=wrap;html=1;" parent="ea_plrxSvSkNGwoNDSgh-15" vertex="1">
          <mxGeometry width="30" height="80" as="geometry">
            <mxRectangle width="30" height="80" as="alternateBounds" />
          </mxGeometry>
        </mxCell>
        <mxCell id="ea_plrxSvSkNGwoNDSgh-17" value="id_int&lt;div&gt;&lt;br&gt;&lt;/div&gt;&lt;div&gt;location varchar(50)&lt;/div&gt;&lt;div&gt;&lt;br&gt;&lt;/div&gt;&lt;div&gt;capacity varchar(50)&lt;/div&gt;" style="shape=partialRectangle;connectable=0;fillColor=none;top=0;left=0;bottom=0;right=0;align=left;spacingLeft=6;fontStyle=5;overflow=hidden;whiteSpace=wrap;html=1;" parent="ea_plrxSvSkNGwoNDSgh-15" vertex="1">
          <mxGeometry x="30" width="150" height="80" as="geometry">
            <mxRectangle width="150" height="80" as="alternateBounds" />
          </mxGeometry>
        </mxCell>
        <mxCell id="ea_plrxSvSkNGwoNDSgh-53" value="Donor" style="shape=table;startSize=30;container=1;collapsible=1;childLayout=tableLayout;fixedRows=1;rowLines=0;fontStyle=1;align=center;resizeLast=1;html=1;" parent="1" vertex="1">
          <mxGeometry x="-770" y="-1190" width="180" height="140" as="geometry" />
        </mxCell>
        <mxCell id="ea_plrxSvSkNGwoNDSgh-54" value="" style="shape=tableRow;horizontal=0;startSize=0;swimlaneHead=0;swimlaneBody=0;fillColor=none;collapsible=0;dropTarget=0;points=[[0,0.5],[1,0.5]];portConstraint=eastwest;top=0;left=0;right=0;bottom=1;" parent="ea_plrxSvSkNGwoNDSgh-53" vertex="1">
          <mxGeometry y="30" width="180" height="20" as="geometry" />
        </mxCell>
        <mxCell id="ea_plrxSvSkNGwoNDSgh-55" value="PK" style="shape=partialRectangle;connectable=0;fillColor=none;top=0;left=0;bottom=0;right=0;fontStyle=1;overflow=hidden;whiteSpace=wrap;html=1;" parent="ea_plrxSvSkNGwoNDSgh-54" vertex="1">
          <mxGeometry width="30" height="20" as="geometry">
            <mxRectangle width="30" height="20" as="alternateBounds" />
          </mxGeometry>
        </mxCell>
        <mxCell id="ea_plrxSvSkNGwoNDSgh-56" value="id-int" style="shape=partialRectangle;connectable=0;fillColor=none;top=0;left=0;bottom=0;right=0;align=left;spacingLeft=6;fontStyle=5;overflow=hidden;whiteSpace=wrap;html=1;" parent="ea_plrxSvSkNGwoNDSgh-54" vertex="1">
          <mxGeometry x="30" width="150" height="20" as="geometry">
            <mxRectangle width="150" height="20" as="alternateBounds" />
          </mxGeometry>
        </mxCell>
        <mxCell id="ea_plrxSvSkNGwoNDSgh-57" value="" style="shape=tableRow;horizontal=0;startSize=0;swimlaneHead=0;swimlaneBody=0;fillColor=none;collapsible=0;dropTarget=0;points=[[0,0.5],[1,0.5]];portConstraint=eastwest;top=0;left=0;right=0;bottom=0;" parent="ea_plrxSvSkNGwoNDSgh-53" vertex="1">
          <mxGeometry y="50" width="180" height="30" as="geometry" />
        </mxCell>
        <mxCell id="ea_plrxSvSkNGwoNDSgh-58" value="" style="shape=partialRectangle;connectable=0;fillColor=none;top=0;left=0;bottom=0;right=0;editable=1;overflow=hidden;whiteSpace=wrap;html=1;" parent="ea_plrxSvSkNGwoNDSgh-57" vertex="1">
          <mxGeometry width="30" height="30" as="geometry">
            <mxRectangle width="30" height="30" as="alternateBounds" />
          </mxGeometry>
        </mxCell>
        <mxCell id="ea_plrxSvSkNGwoNDSgh-59" value="name varchar (1000)" style="shape=partialRectangle;connectable=0;fillColor=none;top=0;left=0;bottom=0;right=0;align=left;spacingLeft=6;overflow=hidden;whiteSpace=wrap;html=1;" parent="ea_plrxSvSkNGwoNDSgh-57" vertex="1">
          <mxGeometry x="30" width="150" height="30" as="geometry">
            <mxRectangle width="150" height="30" as="alternateBounds" />
          </mxGeometry>
        </mxCell>
        <mxCell id="ea_plrxSvSkNGwoNDSgh-60" value="" style="shape=tableRow;horizontal=0;startSize=0;swimlaneHead=0;swimlaneBody=0;fillColor=none;collapsible=0;dropTarget=0;points=[[0,0.5],[1,0.5]];portConstraint=eastwest;top=0;left=0;right=0;bottom=0;" parent="ea_plrxSvSkNGwoNDSgh-53" vertex="1">
          <mxGeometry y="80" width="180" height="30" as="geometry" />
        </mxCell>
        <mxCell id="ea_plrxSvSkNGwoNDSgh-61" value="" style="shape=partialRectangle;connectable=0;fillColor=none;top=0;left=0;bottom=0;right=0;editable=1;overflow=hidden;whiteSpace=wrap;html=1;" parent="ea_plrxSvSkNGwoNDSgh-60" vertex="1">
          <mxGeometry width="30" height="30" as="geometry">
            <mxRectangle width="30" height="30" as="alternateBounds" />
          </mxGeometry>
        </mxCell>
        <mxCell id="ea_plrxSvSkNGwoNDSgh-62" value="donation type varchar(50)" style="shape=partialRectangle;connectable=0;fillColor=none;top=0;left=0;bottom=0;right=0;align=left;spacingLeft=6;overflow=hidden;whiteSpace=wrap;html=1;" parent="ea_plrxSvSkNGwoNDSgh-60" vertex="1">
          <mxGeometry x="30" width="150" height="30" as="geometry">
            <mxRectangle width="150" height="30" as="alternateBounds" />
          </mxGeometry>
        </mxCell>
        <mxCell id="ea_plrxSvSkNGwoNDSgh-63" value="" style="shape=tableRow;horizontal=0;startSize=0;swimlaneHead=0;swimlaneBody=0;fillColor=none;collapsible=0;dropTarget=0;points=[[0,0.5],[1,0.5]];portConstraint=eastwest;top=0;left=0;right=0;bottom=0;" parent="ea_plrxSvSkNGwoNDSgh-53" vertex="1">
          <mxGeometry y="110" width="180" height="30" as="geometry" />
        </mxCell>
        <mxCell id="ea_plrxSvSkNGwoNDSgh-64" value="" style="shape=partialRectangle;connectable=0;fillColor=none;top=0;left=0;bottom=0;right=0;editable=1;overflow=hidden;whiteSpace=wrap;html=1;" parent="ea_plrxSvSkNGwoNDSgh-63" vertex="1">
          <mxGeometry width="30" height="30" as="geometry">
            <mxRectangle width="30" height="30" as="alternateBounds" />
          </mxGeometry>
        </mxCell>
        <mxCell id="ea_plrxSvSkNGwoNDSgh-65" value="address varchar (50" style="shape=partialRectangle;connectable=0;fillColor=none;top=0;left=0;bottom=0;right=0;align=left;spacingLeft=6;overflow=hidden;whiteSpace=wrap;html=1;" parent="ea_plrxSvSkNGwoNDSgh-63" vertex="1">
          <mxGeometry x="30" width="150" height="30" as="geometry">
            <mxRectangle width="150" height="30" as="alternateBounds" />
          </mxGeometry>
        </mxCell>
        <mxCell id="ea_plrxSvSkNGwoNDSgh-1" value="receiver" style="shape=table;startSize=20;container=1;collapsible=1;childLayout=tableLayout;fixedRows=1;rowLines=0;fontStyle=1;align=center;resizeLast=1;html=1;" parent="1" vertex="1">
          <mxGeometry x="-310" y="-1190" width="180" height="160" as="geometry" />
        </mxCell>
        <mxCell id="ea_plrxSvSkNGwoNDSgh-2" value="" style="shape=tableRow;horizontal=0;startSize=0;swimlaneHead=0;swimlaneBody=0;fillColor=none;collapsible=0;dropTarget=0;points=[[0,0.5],[1,0.5]];portConstraint=eastwest;top=0;left=0;right=0;bottom=1;" parent="ea_plrxSvSkNGwoNDSgh-1" vertex="1">
          <mxGeometry y="20" width="180" height="130" as="geometry" />
        </mxCell>
        <mxCell id="ea_plrxSvSkNGwoNDSgh-3" value="" style="shape=partialRectangle;connectable=0;fillColor=none;top=0;left=0;bottom=0;right=0;fontStyle=1;overflow=hidden;whiteSpace=wrap;html=1;" parent="ea_plrxSvSkNGwoNDSgh-2" vertex="1">
          <mxGeometry width="30" height="130" as="geometry">
            <mxRectangle width="30" height="130" as="alternateBounds" />
          </mxGeometry>
        </mxCell>
        <mxCell id="ea_plrxSvSkNGwoNDSgh-4" value="id- int&lt;div&gt;&lt;br&gt;&lt;/div&gt;&lt;div&gt;&lt;br&gt;&lt;/div&gt;&lt;div&gt;&lt;span style=&quot;font-weight: normal;&quot;&gt;name varchar(50)&lt;/span&gt;&lt;/div&gt;&lt;div&gt;&lt;br&gt;&lt;/div&gt;&lt;div&gt;&lt;br&gt;&lt;/div&gt;&lt;div&gt;adress varchar(50)&lt;/div&gt;" style="shape=partialRectangle;connectable=0;fillColor=none;top=0;left=0;bottom=0;right=0;align=left;spacingLeft=6;fontStyle=5;overflow=hidden;whiteSpace=wrap;html=1;" parent="ea_plrxSvSkNGwoNDSgh-2" vertex="1">
          <mxGeometry x="30" width="150" height="130" as="geometry">
            <mxRectangle width="150" height="130" as="alternateBounds" />
          </mxGeometry>
        </mxCell>
        <mxCell id="ea_plrxSvSkNGwoNDSgh-27" value="Donation" style="shape=table;startSize=30;container=1;collapsible=1;childLayout=tableLayout;fixedRows=1;rowLines=0;fontStyle=1;align=center;resizeLast=1;html=1;" parent="1" vertex="1">
          <mxGeometry x="-780" y="-940" width="180" height="150" as="geometry" />
        </mxCell>
        <mxCell id="ea_plrxSvSkNGwoNDSgh-28" value="" style="shape=tableRow;horizontal=0;startSize=0;swimlaneHead=0;swimlaneBody=0;fillColor=none;collapsible=0;dropTarget=0;points=[[0,0.5],[1,0.5]];portConstraint=eastwest;top=0;left=0;right=0;bottom=1;" parent="ea_plrxSvSkNGwoNDSgh-27" vertex="1">
          <mxGeometry y="30" width="180" height="30" as="geometry" />
        </mxCell>
        <mxCell id="ea_plrxSvSkNGwoNDSgh-29" value="PK" style="shape=partialRectangle;connectable=0;fillColor=none;top=0;left=0;bottom=0;right=0;fontStyle=1;overflow=hidden;whiteSpace=wrap;html=1;" parent="ea_plrxSvSkNGwoNDSgh-28" vertex="1">
          <mxGeometry width="30" height="30" as="geometry">
            <mxRectangle width="30" height="30" as="alternateBounds" />
          </mxGeometry>
        </mxCell>
        <mxCell id="ea_plrxSvSkNGwoNDSgh-30" value="&amp;nbsp;id-int" style="shape=partialRectangle;connectable=0;fillColor=none;top=0;left=0;bottom=0;right=0;align=left;spacingLeft=6;fontStyle=5;overflow=hidden;whiteSpace=wrap;html=1;" parent="ea_plrxSvSkNGwoNDSgh-28" vertex="1">
          <mxGeometry x="30" width="150" height="30" as="geometry">
            <mxRectangle width="150" height="30" as="alternateBounds" />
          </mxGeometry>
        </mxCell>
        <mxCell id="ea_plrxSvSkNGwoNDSgh-31" value="" style="shape=tableRow;horizontal=0;startSize=0;swimlaneHead=0;swimlaneBody=0;fillColor=none;collapsible=0;dropTarget=0;points=[[0,0.5],[1,0.5]];portConstraint=eastwest;top=0;left=0;right=0;bottom=0;" parent="ea_plrxSvSkNGwoNDSgh-27" vertex="1">
          <mxGeometry y="60" width="180" height="30" as="geometry" />
        </mxCell>
        <mxCell id="ea_plrxSvSkNGwoNDSgh-32" value="" style="shape=partialRectangle;connectable=0;fillColor=none;top=0;left=0;bottom=0;right=0;editable=1;overflow=hidden;whiteSpace=wrap;html=1;" parent="ea_plrxSvSkNGwoNDSgh-31" vertex="1">
          <mxGeometry width="30" height="30" as="geometry">
            <mxRectangle width="30" height="30" as="alternateBounds" />
          </mxGeometry>
        </mxCell>
        <mxCell id="ea_plrxSvSkNGwoNDSgh-33" value="type varchar(50)" style="shape=partialRectangle;connectable=0;fillColor=none;top=0;left=0;bottom=0;right=0;align=left;spacingLeft=6;overflow=hidden;whiteSpace=wrap;html=1;" parent="ea_plrxSvSkNGwoNDSgh-31" vertex="1">
          <mxGeometry x="30" width="150" height="30" as="geometry">
            <mxRectangle width="150" height="30" as="alternateBounds" />
          </mxGeometry>
        </mxCell>
        <mxCell id="ea_plrxSvSkNGwoNDSgh-34" value="" style="shape=tableRow;horizontal=0;startSize=0;swimlaneHead=0;swimlaneBody=0;fillColor=none;collapsible=0;dropTarget=0;points=[[0,0.5],[1,0.5]];portConstraint=eastwest;top=0;left=0;right=0;bottom=0;" parent="ea_plrxSvSkNGwoNDSgh-27" vertex="1">
          <mxGeometry y="90" width="180" height="30" as="geometry" />
        </mxCell>
        <mxCell id="ea_plrxSvSkNGwoNDSgh-35" value="" style="shape=partialRectangle;connectable=0;fillColor=none;top=0;left=0;bottom=0;right=0;editable=1;overflow=hidden;whiteSpace=wrap;html=1;" parent="ea_plrxSvSkNGwoNDSgh-34" vertex="1">
          <mxGeometry width="30" height="30" as="geometry">
            <mxRectangle width="30" height="30" as="alternateBounds" />
          </mxGeometry>
        </mxCell>
        <mxCell id="ea_plrxSvSkNGwoNDSgh-36" value="amount varchar(50)" style="shape=partialRectangle;connectable=0;fillColor=none;top=0;left=0;bottom=0;right=0;align=left;spacingLeft=6;overflow=hidden;whiteSpace=wrap;html=1;" parent="ea_plrxSvSkNGwoNDSgh-34" vertex="1">
          <mxGeometry x="30" width="150" height="30" as="geometry">
            <mxRectangle width="150" height="30" as="alternateBounds" />
          </mxGeometry>
        </mxCell>
        <mxCell id="ea_plrxSvSkNGwoNDSgh-37" value="" style="shape=tableRow;horizontal=0;startSize=0;swimlaneHead=0;swimlaneBody=0;fillColor=none;collapsible=0;dropTarget=0;points=[[0,0.5],[1,0.5]];portConstraint=eastwest;top=0;left=0;right=0;bottom=0;" parent="ea_plrxSvSkNGwoNDSgh-27" vertex="1">
          <mxGeometry y="120" width="180" height="30" as="geometry" />
        </mxCell>
        <mxCell id="ea_plrxSvSkNGwoNDSgh-38" value="" style="shape=partialRectangle;connectable=0;fillColor=none;top=0;left=0;bottom=0;right=0;editable=1;overflow=hidden;whiteSpace=wrap;html=1;" parent="ea_plrxSvSkNGwoNDSgh-37" vertex="1">
          <mxGeometry width="30" height="30" as="geometry">
            <mxRectangle width="30" height="30" as="alternateBounds" />
          </mxGeometry>
        </mxCell>
        <mxCell id="ea_plrxSvSkNGwoNDSgh-39" value="condition varchar(50)" style="shape=partialRectangle;connectable=0;fillColor=none;top=0;left=0;bottom=0;right=0;align=left;spacingLeft=6;overflow=hidden;whiteSpace=wrap;html=1;" parent="ea_plrxSvSkNGwoNDSgh-37" vertex="1">
          <mxGeometry x="30" width="150" height="30" as="geometry">
            <mxRectangle width="150" height="30" as="alternateBounds" />
          </mxGeometry>
        </mxCell>
        <mxCell id="yvYifRq3Z9U_3fr7Rwjx-5" value="" style="edgeStyle=entityRelationEdgeStyle;fontSize=12;html=1;endArrow=ERmany;startArrow=ERmany;rounded=0;entryX=-0.011;entryY=0.056;entryDx=0;entryDy=0;entryPerimeter=0;exitX=1.017;exitY=0.107;exitDx=0;exitDy=0;exitPerimeter=0;" edge="1" parent="1" source="ea_plrxSvSkNGwoNDSgh-53" target="ea_plrxSvSkNGwoNDSgh-1">
          <mxGeometry width="100" height="100" relative="1" as="geometry">
            <mxPoint x="-590" y="-1070" as="sourcePoint" />
            <mxPoint x="-490" y="-1170" as="targetPoint" />
            <Array as="points">
              <mxPoint x="-540" y="-1200" />
              <mxPoint x="-590" y="-1180" />
              <mxPoint x="-610" y="-1260" />
            </Array>
          </mxGeometry>
        </mxCell>
        <mxCell id="yvYifRq3Z9U_3fr7Rwjx-7" value="" style="edgeStyle=entityRelationEdgeStyle;fontSize=12;html=1;endArrow=ERmany;startArrow=ERmany;rounded=0;entryX=-0.017;entryY=0.136;entryDx=0;entryDy=0;entryPerimeter=0;" edge="1" parent="1">
          <mxGeometry width="100" height="100" relative="1" as="geometry">
            <mxPoint x="-596.94" y="-925" as="sourcePoint" />
            <mxPoint x="-770" y="-1170.96" as="targetPoint" />
            <Array as="points">
              <mxPoint x="-488" y="-903.99" />
              <mxPoint x="-776.94" y="-1040" />
              <mxPoint x="-468" y="-913.99" />
              <mxPoint x="-503" y="-1148.99" />
              <mxPoint x="-493" y="-1138.99" />
              <mxPoint x="-786.94" y="-1190" />
              <mxPoint x="-776.94" y="-1190" />
              <mxPoint x="-766.94" y="-1190" />
              <mxPoint x="-533" y="-1158.99" />
              <mxPoint x="-483" y="-1148.99" />
              <mxPoint x="-478" y="-963.99" />
              <mxPoint x="-488" y="-973.99" />
              <mxPoint x="-488" y="-963.99" />
              <mxPoint x="-478" y="-973.99" />
              <mxPoint x="-438" y="-963.99" />
              <mxPoint x="-438" y="-953.99" />
              <mxPoint x="-473" y="-873.99" />
              <mxPoint x="-448" y="-973.99" />
              <mxPoint x="-448" y="-973.99" />
              <mxPoint x="-463" y="-963.99" />
              <mxPoint x="-498" y="-963.99" />
              <mxPoint x="-488" y="-963.99" />
              <mxPoint x="-493" y="-963.99" />
              <mxPoint x="-498" y="-963.99" />
              <mxPoint x="-463" y="-933.99" />
              <mxPoint x="-503" y="-943.99" />
              <mxPoint x="-483" y="-883.99" />
              <mxPoint x="-473" y="-863.99" />
              <mxPoint x="-563" y="-973.99" />
              <mxPoint x="-523" y="-933.99" />
            </Array>
          </mxGeometry>
        </mxCell>
        <mxCell id="yvYifRq3Z9U_3fr7Rwjx-13" value="" style="edgeStyle=entityRelationEdgeStyle;fontSize=12;html=1;endArrow=ERmany;startArrow=ERmany;rounded=0;startFill=0;entryX=1.017;entryY=0.081;entryDx=0;entryDy=0;entryPerimeter=0;" edge="1" parent="1" target="ea_plrxSvSkNGwoNDSgh-1">
          <mxGeometry width="100" height="100" relative="1" as="geometry">
            <mxPoint x="-110" y="-940" as="sourcePoint" />
            <mxPoint x="-90" y="-1180" as="targetPoint" />
            <Array as="points">
              <mxPoint x="-80" y="-1190" />
              <mxPoint x="-40" y="-1190" />
              <mxPoint x="-130" y="-1180" />
              <mxPoint x="-130" y="-1180" />
              <mxPoint x="-130" y="-1180" />
              <mxPoint x="-130" y="-1180" />
              <mxPoint x="-130" y="-1180" />
              <mxPoint x="-130" y="-1180" />
            </Array>
          </mxGeometry>
        </mxCell>
        <mxCell id="yvYifRq3Z9U_3fr7Rwjx-14" value="" style="edgeStyle=entityRelationEdgeStyle;fontSize=12;html=1;endArrow=ERmany;startArrow=ERmany;rounded=0;entryX=0;entryY=0.067;entryDx=0;entryDy=0;entryPerimeter=0;" edge="1" parent="1">
          <mxGeometry width="100" height="100" relative="1" as="geometry">
            <mxPoint x="-600" y="-790" as="sourcePoint" />
            <mxPoint x="-290" y="-939.95" as="targetPoint" />
            <Array as="points">
              <mxPoint x="-710" y="-690" />
              <mxPoint x="-440" y="-899.95" />
              <mxPoint x="-330" y="-939.95" />
              <mxPoint x="-550" y="-840" />
              <mxPoint x="-670" y="-700" />
            </Array>
          </mxGeometry>
        </mxCell>
        <mxCell id="yvYifRq3Z9U_3fr7Rwjx-15" value="" style="edgeStyle=entityRelationEdgeStyle;fontSize=12;html=1;endArrow=ERmany;startArrow=ERmany;rounded=0;exitX=0.994;exitY=0.767;exitDx=0;exitDy=0;exitPerimeter=0;entryX=-0.017;entryY=0.238;entryDx=0;entryDy=0;entryPerimeter=0;" edge="1" parent="1" source="ea_plrxSvSkNGwoNDSgh-31" target="ea_plrxSvSkNGwoNDSgh-2">
          <mxGeometry width="100" height="100" relative="1" as="geometry">
            <mxPoint x="-480" y="-950" as="sourcePoint" />
            <mxPoint x="-380" y="-1050" as="targetPoint" />
          </mxGeometry>
        </mxCell>
      </root>
    </mxGraphModel>
  </diagram>
</mxfile>
